<?xml version="1.0" encoding="utf-8"?>
<!-- Generator: Adobe Illustrator 26.3.1, SVG Export Plug-In . SVG Version: 6.00 Build 0)  -->
<svg version="1.1" id="icon-0" xmlns:svgjs="http://svgjs.dev/svgjs"
	 xmlns="http://www.w3.org/2000/svg" xmlns:xlink="http://www.w3.org/1999/xlink" x="0px" y="0px" viewBox="0 0 1000 1125"
	 style="enable-background:new 0 0 1000 1125;" xml:space="preserve">
<style type="text/css">
	.st0{fill:#FFFFFF;}
</style>
<g>
	<path class="st0" d="M45.4,234.5c4.8-57.7,6-109,14.2-159.1c6.9-42.7,39-64.6,80.8-71.7c11.5-1.9,23.2-3.7,34.9-3.7
		c160.2,1.1,320.5-0.6,480.6,5.1c101.3,3.6,183.8,49.7,237.6,139.5c73.7,123.1,36.8,280-84.2,357.1c-11.5,7.4-23.3,14.4-40.5,25.1
		c16,8.9,26.3,15.7,37.5,20.7c128.4,58,187.9,153.8,176.6,284.7c-11.4,132.1-97.8,240.4-224.8,269.2c-66.7,15.1-136.6,16.3-205,23.4
		c-4,0.4-8.3-2.3-18.5-5.3c10.4-6.8,16-11.5,22.3-14.5c119.7-57.9,184.1-183.4,157.2-306.7c-28.3-129.7-140.7-220.1-275.5-221.2
		c-71.4-0.5-142.7,0.4-214.1-0.4c-62.5-0.7-91.2-33.7-90.9-102.4c0.2-63.4,32.3-98,92.4-98.3c100.6-0.5,201.2,0.4,301.8-0.4
		c47.7-0.4,83.6-29.4,94.9-73.5c10.6-41.7-8.1-86-48.3-106.3c-15-7.6-33.5-11-50.4-11.1c-101.8-1-203.5-0.5-305.3-0.4
		c-52.6,0-101.8,12.2-146.1,41.5C67.8,228.9,61.7,229.4,45.4,234.5z"/>
	<path class="st0" d="M50.1,714.8c110,78.5,227.3,49.7,339.8,55.4c23.3,1.2,46.9-0.1,69.8,3.5c41.4,6.5,69.8,44.2,67,85.3
		c-2.7,40.6-32.8,74.6-73.6,75.3c-126,1.9-252,1.7-378,0.8c-8.4-0.1-23.6-13.3-23.9-20.7C49.3,851.5,50.1,788.7,50.1,714.8z"/>
</g>
</svg>
