<svg xmlns="http://www.w3.org/2000/svg" version="1.1" xmlns:xlink="http://www.w3.org/1999/xlink" xmlns:svgjs="http://svgjs.dev/svgjs" width="1000" height="1125" viewBox="0 0 1000 1125"><g transform="matrix(1,0,0,1,1.7053025658242404e-13,0)"><svg viewBox="0 0 320 360" data-background-color="#ffffff" preserveAspectRatio="xMidYMid meet" height="1125" width="1000" xmlns="http://www.w3.org/2000/svg" xmlns:xlink="http://www.w3.org/1999/xlink"><g id="tight-bounds" transform="matrix(1,0,0,1,0,0)"><svg viewBox="0 0 320 360" height="360" width="320"><g><svg></svg></g><g><svg viewBox="0 0 320 360" height="360" width="320"><g><path xmlns="http://www.w3.org/2000/svg" d="M20.961 227.22l3.726 4.658-1.863-6.056c-0.466-2.795-3.726 0.466-1.863 1.398M25.153 224.425c1.397 2.329 2.795 4.658 2.795 6.987 0 3.261 2.795 4.658 5.123 5.589-3.261-3.726-5.124-13.974-7.918-12.576M204.017 26.929c7.918 0 15.371-0.932 23.756 0.931 20.495 5.124 37.729 15.371 49.374 29.811l32.606 52.169c1.397 13.042 4.192 27.482 3.726 43.319 3.261 0 2.795-4.658 6.521-5.59-3.726 9.316-5.59 20.961-6.521 34.469-2.329-7.453 0-18.632 0.466-24.687-3.261 5.124-5.124 1.397-5.124-0.932 0.466-3.726-1.397-3.261-2.795-4.658-5.124-4.658-8.384-9.782-12.11-17.7 2.329-6.055 2.795-14.905-4.658-19.563-2.329-1.397-5.124-3.726-6.521-7.453-1.863-5.124-5.124-11.179-4.193-19.097 0.466-2.329-6.987 5.124-11.179 1.863-18.166-12.576-36.332-27.016-58.224-39.127-11.645 0-20.029-4.192-24.221-9.316-3.726-4.658-0.932-10.713 4.658-11.179 3.261 0 6.987-0.932 9.782 0.932 0.466-1.863 2.329-4.192 4.657-4.192M157.904 16.215l0.932 0.466c4.658 0.932 6.987 7.453 12.11 5.124 0 3.261 0.466 6.521-0.466 8.85-1.397 3.726-5.59 3.726-8.85 3.726-31.208-1.863-49.374 11.179-68.471 22.358-5.124 3.261-10.713 5.59-14.906 9.782-20.029 18.632-41.921 35.866-47.045 70.335l-4.192 38.195c-0.466 4.192-5.124 8.384-4.192 13.508l3.26 22.824c-3.261-3.261-5.124 0.932-4.192 2.795 0.466 1.397 2.329 6.055 5.124 1.863 3.726 6.987 7.453 20.495 12.576 26.55 15.837 18.632 36.332 35.4 53.101 52.169 4.192-0.932 7.453-0.932 8.384-3.727 1.397 2.795-1.397 5.59-3.726 6.056 7.453 4.658 15.837 8.85 27.016 9.781 14.44 0.932 27.948 3.261 40.524 6.522 6.521-1.863 13.042-2.795 20.029-3.261 2.329 0 3.726-3.726 6.521-4.658l0.466-4.658c2.795 4.192 2.329-1.397 0.466-4.192 3.261 2.795 4.192 5.124 5.589 6.987 0-1.397 3.726-6.521 3.727-0.466l0.931-6.055c1.397-0.932 1.863 5.124 3.261 0.931 1.397-4.192 4.192-0.932 6.987-2.329-0.932 1.863-0.466 5.59 2.794 3.261l3.727-3.261c2.329 5.59 6.055 3.261 7.918 2.329 20.495-13.042 40.99-28.413 60.553-43.784l-0.466 6.055 2.329-7.453c2.329 2.329 4.192 0.466 5.124-0.931 2.795-4.658 6.521-9.316 12.577-13.508-7.453 20.029-16.303 35.866-27.482 48.908l-4.658 5.59c0 3.261-0.932 7.453-4.658 7.918-1.863 0.466-5.59-0.932-8.384 1.863-1.397 1.863 3.261 5.59-0.466 2.795-3.261-2.329-6.521 0-10.248 0.932-2.795 0.932 1.863 3.726 2.795 5.589 0.932 1.863 1.863 3.726 1.398 6.056l-5.124-5.59c-6.055 3.261-9.782 9.316-14.906 13.974-2.329 1.863-1.397 5.124-1.397 7.918-3.261 0-6.987-0.932-8.85 0.932-1.397 1.863-0.932 4.658-0.932 7.453-4.658-0.466-5.124-7.453-9.315-6.056-4.192 0.932-8.85 1.397-12.577 3.727 2.795 5.59-4.658 2.329-3.726 3.26-6.987-4.192-13.042-7.453-20.495-4.658-15.837-5.124-35.4-2.795-49.84-0.931 0-2.329 0.466-4.658-0.466-5.124-0.932 2.329-3.726 1.397-3.26 1.397-8.85-6.055-17.7-9.782-27.016-14.905-8.384 0.932-16.303-3.261-18.632-5.59-6.521-6.055-13.974-2.795-20.029-4.192-13.042-3.261-17.7-16.769-19.098-26.084-0.932-4.658-4.658-6.521-6.055-6.056-6.055-19.563-15.371-37.263-22.824-55.429-1.863-4.658-1.397-9.316-1.397-14.44 2.329 0.932 4.658 0.466 4.192-2.794-2.329-15.371-7.918-27.016-13.974-38.195 3.261-15.837 3.726-34.469 11.179-48.443 6.521-12.576 18.632-19.098 27.016-29.811 2.795-3.726 2.795-8.85 5.59-12.11 9.316-9.316 18.632-19.098 28.879-27.482 4.658-3.726 10.247 0 17.234-1.397 2.329-8.384 11.645-15.837 20.495-13.508 3.726 0.932 11.179-8.85 13.508-9.782 3.726-1.397 1.863 3.726 1.863 6.987 8.85-6.987 20.961-10.713 32.14-14.906" fill="#617591" fill-rule="nonzero" stroke="none" stroke-width="1" stroke-linecap="butt" stroke-linejoin="miter" stroke-miterlimit="10" stroke-dasharray="" stroke-dashoffset="0" font-family="none" font-weight="none" font-size="none" text-anchor="none" style="mix-blend-mode: normal" data-fill-palette-color="tertiary"></path></g><g transform="matrix(1,0,0,1,68.59414719248679,90)"><svg viewBox="0 0 182.81170561502643 180" height="180" width="182.81170561502643"><g><svg viewBox="0 0 182.81170561502643 180" height="180" width="182.81170561502643"><g><svg viewBox="0 0 192 189.04697532212782" height="180" width="182.81170561502643"><g transform="matrix(1,0,0,1,0,91.76371625147219)"><svg viewBox="0 0 192 97.28325907065565" height="97.28325907065565" width="192"><g><svg viewBox="0 0 192 97.28325907065565" height="97.28325907065565" width="192"><g><svg viewBox="0 0 192 97.28325907065565" height="97.28325907065565" width="192"><g transform="matrix(1,0,0,1,0,0)"><svg width="192" viewBox="1.399999976158142 -35.04999923706055 78.54999542236328 39.79999923706055" height="97.28325907065565" data-palette-color="#617591"><path d="M22.9 4.75L22.9 4.45Q22.9 4.45 22.83 4.45 22.75 4.45 22.7 4.5L22.7 4.5 22.55 4.55Q22.4 4.55 22.4 4.45L22.4 4.45Q22.2 4.35 22.15 4.15L22.15 4.15Q20.4 3.85 19.9 3.65L19.9 3.65 18.15 3.15 17.9 3.15Q17.65 3.15 17.5 3.05L17.5 3.05Q17.05 3.05 16.75 2.95L16.75 2.95Q16.35 2.9 15.45 2.6 14.55 2.3 14.15 2.15L14.15 2.15Q13.35 1.9 11.85 1.3L11.85 1.3Q11.15 1 10.8 0.9L10.8 0.9 9.65 0.2Q9.25-0.1 9.25-0.4L9.25-0.4Q9.25-1.35 9.7-2.4L9.7-2.4Q9.85-2.75 10.13-3.25 10.4-3.75 10.65-4.4L10.65-4.4Q10.75-4.7 11.2-5.3L11.2-5.3Q12.4-7.3 12.5-7.5L12.5-7.5Q12.7-8.05 12.7-8.5L12.7-8.5Q12.7-9.25 11.9-10.05L11.9-10.05Q11.15-10.8 11.15-11.5L11.15-11.5Q10.9-11.5 10.9-11.45L10.9-11.45 10.8-11.45 10.75-11.45Q10.65-11.55 10.65-11.65L10.65-11.65Q9.05-13.65 7.4-16.5L7.4-16.5Q5.3-19.8 4-22.5L4-22.5Q3.6-23.1 3.05-24.65L3.05-24.65Q2.4-26 1.95-27.4L1.95-27.4Q1.4-28.95 1.4-29.4L1.4-29.4Q1.4-29.9 2.5-30.7L2.5-30.7Q2.95-31 3.55-31.3 4.15-31.6 4.45-31.75L4.45-31.75Q4.7-31.8 6.55-32.3L6.55-32.3 7.25-32.55Q7.45-32.7 7.7-32.7L7.7-32.7Q8-32.7 8.65-32.9L8.65-32.9Q10.1-33.2 10.35-33.3L10.35-33.3 12.15-33.7Q13.65-34.2 13.9-34.25L13.9-34.25 14-34.3 14.15-34.3 14.25-34.3Q15.3-34.3 15.65-33.8L15.65-33.8Q15.95-33.5 16.65-32.4L16.65-32.4Q16.75-32.1 17.03-31.7 17.3-31.3 17.4-31.2L17.4-31.2 17.8-30.65 18.15-30.25Q18.35-30 18.55-29.65 18.75-29.3 19-28.9L19-28.9Q20.3-26.6 21-25.65L21-25.65Q21.45-25 21.75-25L21.75-25Q21.9-25 22.25-25.55L22.25-25.55Q22.7-26.25 23.9-28.75L23.9-28.75Q24.55-30.35 25.45-32.4L25.45-32.4Q25.9-33.3 25.95-33.5L25.95-33.5Q26.15-34.4 26.4-34.65L26.4-34.65Q26.65-35.05 27.3-35.05L27.3-35.05Q28.9-35.05 31.5-34.4L31.5-34.4Q34.05-33.65 36.4-32.45L36.4-32.45Q38.8-31.15 39.65-30.05L39.65-30.05Q39.65-28.7 39-27.55L39-27.55 34.4-17.4 29.9-7.2 29.7-7.15Q29.65-7.15 29.55-7.05L29.55-7.05Q26.25-0.6 23.5 4.55L23.5 4.55Q23.4 4.75 22.9 4.75L22.9 4.75ZM55.65 1.2Q52.1 1.2 49.97 1.03 47.85 0.85 46.6 0.4L46.6 0.4Q45.3-0.15 44.7-1.1 44.1-2.05 44.1-3.65L44.1-3.65 44.1-4.9Q44.15-5.4 44.15-6.4L44.15-6.4Q44.2-6.9 44.2-7.9L44.2-7.9Q44.25-8.4 44.25-8.95L44.25-8.95Q44.25-10.85 44.15-14.65L44.15-14.65 44.1-17.65Q43.85-21.2 43.85-26.25L43.85-26.25 43.85-27.95 43.85-29.5Q43.85-31.25 44-32.05L44-32.05Q44.1-32.3 44.12-32.5 44.15-32.7 44.15-32.8L44.15-32.8Q44.2-33.7 44.9-34.15L44.9-34.15Q45.3-34.3 46-34.3L46-34.3Q46.45-34.3 46.97-34.35 47.5-34.4 48.1-34.4L48.1-34.4Q48.9-34.4 50.6-34.5L50.6-34.5Q51.05-34.55 51.67-34.6 52.3-34.65 53.1-34.65L53.1-34.65Q54.7-34.75 55.35-34.75L55.35-34.75Q59.45-34.75 64.95-33.95L64.95-33.95Q68.8-33.5 70.95-33L70.95-33Q74.6-32.1 76.5-30.65L76.5-30.65Q78.95-28.55 78.95-25.3L78.95-25.3Q78.95-21.1 75.5-18.95L75.5-18.95Q75.25-18.8 75.05-18.73 74.85-18.65 74.65-18.55L74.65-18.55Q73.75-18.3 73.1-17.9L73.1-17.9Q73-17.85 72.85-17.73 72.7-17.6 72.6-17.4L72.6-17.4Q72.6-17.4 72.62-17.38 72.65-17.35 72.65-17.3L72.65-17.3Q72.65-17.3 72.75-17.2L72.75-17.2Q76.2-15.8 78.35-13.75L78.35-13.75Q79.95-11.95 79.95-10L79.95-10Q79.95-7.25 76.6-4.45L76.6-4.45Q73.3-1.85 68.45-0.5L68.45-0.5Q64.85 0.5 61.35 0.9L61.35 0.9Q58.7 1.2 55.65 1.2L55.65 1.2ZM61.6-22.15Q61.85-22.15 62.15-22.3L62.15-22.3Q63.45-22.75 64.6-23.4L64.6-23.4Q65.3-23.7 65.97-24.03 66.65-24.35 66.9-24.45L66.9-24.45 67.35-24.65 67.75-24.75Q67.95-24.75 67.95-25L67.95-25Q67.95-25.85 66.1-26.15L66.1-26.15Q65-26.4 63.35-26.4L63.35-26.4Q61.85-26.4 61.45-25.25L61.45-25.25Q61.2-24.65 61.2-23.75 61.2-22.85 61.2-22.65L61.2-22.65 61.2-22.4Q61.2-22.15 61.6-22.15L61.6-22.15ZM60.75-7.7L60.85-7.7Q60.85-7.7 60.87-7.7 60.9-7.7 60.9-7.75L60.9-7.75Q64.4-9.45 68.85-11.45L68.85-11.45Q69.05-11.65 69.1-11.65L69.1-11.65 69.35-11.8Q67.25-12.45 65.2-12.65L65.2-12.65Q62.6-12.75 60.9-12.75L60.9-12.75Q60.35-12.75 60.35-12.05L60.35-12.05 60.35-8.05Q60.35-7.7 60.75-7.7L60.75-7.7Z" opacity="1" transform="matrix(1,0,0,1,0,0)" fill="#617591" class="undefined-text-0" data-fill-palette-color="primary" id="text-0"></path></svg></g></svg></g></svg></g></svg></g><g transform="matrix(1,0,0,1,36.672,0)"><svg viewBox="0 0 118.656 77.56775395484584" height="77.56775395484584" width="118.656"><g><svg xmlns="http://www.w3.org/2000/svg" xmlns:xlink="http://www.w3.org/1999/xlink" version="1.1" x="0" y="0" viewBox="28.506668090820312 0.3249998092651367 1223.574951171875 799.8749389648438" enable-background="new 0 0 1280 800" xml:space="preserve" width="118.656" height="77.56775395484584" class="icon-icon-0" data-fill-palette-color="accent" id="icon-0"><path d="M1129.8 604.9c-7.8-7.8-24.1-13.7-35.8-13.7-300.5 5.9-601 5.9-902.1 0-11.7 0-28 5.9-35.8 13.7-48.8 47.5-72.8 70.9-117.7 116.4-7.2 7.2-3.9 13.7 7.8 14.3 398 18.9 795.4 18.9 1193.5-0.7 11.7-0.7 15-7.2 7.8-14.3C1202.6 675.8 1179.2 652.4 1129.8 604.9zM514.5 727.8c-11.7 0-14.3-6.5-5.9-14.3 5.2-4.6 7.8-7.2 13-12.4 8.5-7.8 24.7-14.3 36.4-14.3 68.9 0.7 103.4 0.7 172.4 0 11.7 0 28 6.5 36.4 14.3 5.2 4.6 7.8 7.2 13 12.4 8.5 7.8 5.9 14.3-5.9 14.3C688.1 728.5 601 728.5 514.5 727.8z" fill="#617591" data-fill-palette-color="accent"></path><path d="M1249.4 774c-0.7 4.6-5.2 9.1-10.4 9.1-400 22.8-798 22.8-1198 0-4.6 0-9.1-4.6-10.4-9.1-0.7-5.9-1.3-8.5-2-14.3-0.7-4.6 2.6-8.5 7.8-8.5C439 772 841 772 1244.2 751.2c4.6 0 8.5 3.3 7.8 8.5C1250.7 765.5 1250.1 768.1 1249.4 774z" fill="#617591" data-fill-palette-color="accent"></path><g fill="#617591" data-fill-palette-color="accent"><path d="M642 195.1c-48.1 0-87.2 39-87.2 87.2 0 45.5 37.7 55.3 49.4 117.7 0 1.3 0.7 3.9 2.6 3.9 11.7 2 23.4 2.6 35.8 2.6s24.1-0.7 35.8-2.6c2 0 2.6-2 2.6-3.3 13-58.5 49.4-72.8 49.4-118.4C729.8 234.8 690.7 195.1 642 195.1z" fill="#617591" data-fill-palette-color="accent"></path><g fill="#617591" data-fill-palette-color="accent"><path d="M651.1 419.5c-4.6 0-12.4 0-17.6 0l-20.2-1.3c-4.6-0.7-7.8 2.6-7.2 7.8l3.9 26c0.7 4.6 5.2 9.8 9.8 11.1 0 0 4.6 1.3 22.1 1.3 17.6 0 22.1-1.3 22.1-1.3 4.6-1.3 9.1-6.5 9.8-11.1l3.9-26c0.7-4.6-2.6-8.5-7.2-7.8L651.1 419.5z" fill="#617591" data-fill-palette-color="accent"></path></g></g><path d="M543.1 228.3c-1.3 0-2.6-0.7-3.9-1.3l-52.7-30.6c-3.9-2-5.2-7.2-2.6-11.1 2-3.9 7.2-5.2 11.1-2.6l52.7 30.6c3.9 2 5.2 7.2 2.6 11.1C548.3 227 545.7 228.3 543.1 228.3z" fill="#617591" data-fill-palette-color="accent"></path><path d="M580.8 182.1c-2.6 0-5.2-1.3-7.2-3.9l-30.6-52.7c-2-3.9-0.7-8.5 2.6-11.1 3.9-2 8.5-0.7 11.1 2.6l30.6 52.7c2 3.9 0.7 8.5-2.6 11.1C583.4 181.5 582.1 182.1 580.8 182.1z" fill="#617591" data-fill-palette-color="accent"></path><path d="M640 160c-4.6 0-7.8-3.3-7.8-7.8V96.9c0-4.6 3.3-7.8 7.8-7.8 4.6 0 7.8 3.3 7.8 7.8v55.3C647.8 156.1 644.6 160 640 160z" fill="#617591" data-fill-palette-color="accent"></path><path d="M703.7 182.1c-1.3 0-2.6-0.7-3.9-1.3-3.9-2-5.2-7.2-2.6-11.1l30.6-52.7c2-3.9 7.2-5.2 11.1-2.6 3.9 2 5.2 7.2 2.6 11.1l-30.6 52.7C709.6 180.8 707 182.1 703.7 182.1z" fill="#617591" data-fill-palette-color="accent"></path><path d="M741.5 228.3c-2.6 0-5.2-1.3-7.2-3.9-2-3.9-0.7-8.5 2.6-11.1l52.7-30.6c3.9-2 8.5-0.7 11.1 2.6 2 3.9 0.7 8.5-2.6 11.1L745.4 227C744.1 228.3 742.8 228.3 741.5 228.3z" fill="#617591" data-fill-palette-color="accent"></path><path d="M1062.1 48.1c14.3 153.5 19.5 307 15 461.1-288.8 3.3-578.2 3.3-867 0-3.9-153.5 1.3-307.6 15.6-461.1C504.7 39 783.1 39 1062.1 48.1M1077.1 9.1C787-2.6 498.2-2.6 208.1 9.1c-11.1 0.7-19.5 7.2-20.8 18.9-16.3 169.1-22.1 336.9-17.6 506.7 0.7 11.7 8.5 23.4 20.2 24.1 301.8 4.6 603.6 4.6 905.4 0 11.7 0 22.1-12.4 22.1-24.1 4.6-169.8-2-336.9-18.2-506C1098.5 15.6 1088.8 9.1 1077.1 9.1L1077.1 9.1z" fill="#617591" data-fill-palette-color="accent"></path></svg></g></svg></g><g></g></svg></g></svg></g></svg></g></svg></g><defs></defs></svg><rect width="320" height="360" fill="none" stroke="none" visibility="hidden"></rect></g></svg></g></svg>